<svg width="351" height="381" viewBox="0 0 351 381" fill="none" xmlns="http://www.w3.org/2000/svg">
<path d="M329.445 0.27879C329.076 0.537769 329.168 0.602513 329.844 0.602513C331.471 0.602513 335.401 1.63843 337.335 2.54485C340.835 4.22821 343.721 7.78917 344.489 11.4472C346.147 19.2166 342.616 29.4139 334.418 40.4852C333.129 42.2333 331.962 43.6577 331.839 43.6577C331.686 43.6577 331.594 42.816 331.594 41.7801C331.594 38.8019 330.427 23.6192 329.721 17.8893C329.138 12.7098 328.032 7.59493 327.142 5.81446C326.589 4.68143 324.962 3.1923 324.286 3.1923C322.966 3.22467 320.878 4.68143 318.391 7.33596C316.948 8.88983 312.558 14.3607 308.597 19.4756C304.667 24.5904 299.448 31.1944 297.022 34.1079C292.693 39.3198 282.899 50.1322 282.499 50.1322C282.377 50.1322 282.1 49.6142 281.885 48.9991C281.333 47.3481 280.105 45.9238 279.214 45.9238C277.74 45.9238 276.789 47.2834 266.626 64.117C265.336 66.2212 262.849 68.9081 262.143 68.9081C262.02 68.9081 262.635 67.3542 263.494 65.4119C265.705 60.4266 267.363 54.9233 267.977 50.6501C268.407 47.4453 268.407 46.4741 268.069 42.4923C266.81 28.3456 263.586 17.7598 260.577 17.7598C259.503 17.7598 258.305 19.1842 256.924 22.1301C254.59 26.986 244.305 47.7042 241.695 52.722C234.91 65.8651 229.69 74.3143 222.813 83.3138C215.505 92.896 212.496 96.2627 204.79 103.449C189.315 117.92 176.052 131.387 170.863 137.991C161.744 149.515 156.187 160.457 149.708 179.621C146.884 187.974 145.778 190.952 145.564 190.952C145.471 190.952 144.059 188.815 142.463 186.161C132.975 170.622 127.111 165.345 116.825 163.079C112.742 162.14 105.189 162.917 99.9387 164.795C94.3507 166.77 88.7934 170.46 84.2494 175.219C81.7317 177.873 80.9334 178.942 80.0123 180.981C79.0605 183.053 78.4465 183.862 76.3587 185.869C72.0909 189.883 69.082 192.311 68.6215 192.117C67.6083 191.729 62.358 187.844 60.5159 186.128C56.8315 182.762 53.5155 177.711 52.2567 173.633C51.3663 170.719 51.2128 169.586 51.7041 169.586C51.9497 169.586 52.1953 169.78 52.2874 170.039C52.3795 170.298 53.362 170.978 54.498 171.561C56.3095 172.5 56.8008 172.597 59.1956 172.597C63.0949 172.597 68.5601 170.784 72.0295 168.291C75.7139 165.637 81.2405 159.195 84.3722 153.853C85.9995 151.101 87.8109 147.476 87.8109 146.958C87.8109 146.796 85.9073 147.573 83.6046 148.706C74.8542 152.882 72.2752 153.659 64.016 154.662C60.7001 155.051 58.1517 155.536 57.0464 155.99C55.2656 156.669 51.5813 159.324 51.5813 159.907C51.5813 160.069 51.4584 160.198 51.3049 160.198C51.1821 160.198 50.8751 159.292 50.6602 158.191C49.5855 152.396 44.8573 146.699 38.1333 143.073C37.4271 142.685 36.8438 142.264 36.8438 142.134C36.8438 142.005 37.4578 141.713 38.2254 141.487C42.3396 140.321 45.7477 136.145 47.2828 130.351C48.0811 127.308 48.603 122.031 48.3574 119.636L48.1425 117.758L47.0372 119.15C43.0151 124.2 40.436 126.466 35.7691 129.088C32.8216 130.739 31.8084 131.678 30.8259 133.718C30.0277 135.368 29.8741 136.858 30.4268 137.926C30.611 138.282 30.6724 138.638 30.5803 138.735C30.4268 138.929 25.3915 136.113 22.4133 134.171C18.3298 131.484 14.8603 128.473 16.7639 129.25C17.3166 129.477 19.2202 128.7 20.0798 127.89C20.3869 127.599 20.9702 126.596 21.3694 125.722C22.5668 123.035 22.2905 118.891 20.6632 114.683C20.1413 113.355 19.65 112.805 19.65 113.614C19.65 113.809 19.128 115.168 18.4833 116.625C17.685 118.438 16.6718 119.959 15.3823 121.416C14.0006 122.97 13.4173 123.909 13.2945 124.75C13.2023 125.398 12.9567 125.851 12.7725 125.786C12.0049 125.527 9.18023 120.607 8.44336 118.211C7.73719 115.913 7.70648 115.816 7.86 117.24C8.25914 120.769 9.88641 124.33 12.8953 128.085L14.7375 130.416H13.6322C13.0181 130.416 11.1145 130.933 9.39516 131.549C7.00031 132.39 5.52656 132.714 3.13172 132.876C1.41234 133.005 0 133.2 0 133.329C0 133.718 5.03531 136.178 7.36875 136.922C10.0092 137.764 13.2945 137.894 15.198 137.246C16.7639 136.696 18.1148 135.368 18.1148 134.397C18.1148 133.426 18.2377 133.459 19.9263 134.721C21.922 136.243 27.4793 139.706 31.6242 142.037C33.5585 143.138 35.2779 144.174 35.4314 144.336C35.5849 144.497 35.2165 144.692 34.5103 144.821C31.9313 145.307 31.0409 145.695 28.2469 147.605C26.6503 148.674 24.716 149.904 23.9484 150.325C22.444 151.134 17.7464 152.752 15.0445 153.4C12.2198 154.08 12.2505 154.209 15.3823 155.277C19.65 156.734 22.9966 157.317 27.7863 157.511C31.1023 157.641 32.576 157.544 34.1726 157.155C36.9359 156.475 39.5456 155.018 40.9273 153.432C41.8791 152.299 42.0633 151.878 42.0633 150.648C42.0633 149.839 42.1554 149.191 42.3089 149.224C42.7695 149.256 45.6248 153.173 46.5459 155.051C47.8355 157.705 48.1732 159.68 48.3574 165.993C48.4495 168.906 48.603 171.625 48.6952 172.079L48.9101 172.888L47.4056 172.079C43.0765 169.78 39.8834 169.651 32.4225 171.593L27.1723 172.953L20.8781 172.985C17.4087 172.985 12.9874 172.856 11.0531 172.726L7.52227 172.435L9.14953 173.859C15.7814 179.557 24.1941 184.348 31.1637 186.452C35.5235 187.747 42.0633 187.585 45.9319 186.064C48.1118 185.222 50.568 182.826 50.8444 181.272C50.9672 180.722 51.1514 180.269 51.2742 180.269C51.3663 180.269 52.1339 181.402 52.9629 182.762C54.8665 185.934 59.5334 190.887 62.8493 193.218C64.2616 194.189 65.3977 195.063 65.3977 195.16C65.3977 195.257 63.6476 196.617 61.5291 198.236C57.1385 201.57 56.4016 202.217 56.6473 202.638C57.1078 203.383 61.6826 202.703 68.468 200.858L71.3848 200.081L72.5515 201.246C74.0866 202.8 76.4815 206.232 77.464 208.303C78.8456 211.184 79.3062 213.71 79.122 217.497C78.9377 221.77 78.2009 224.231 75.9595 228.148C74.0252 231.547 73.9638 232.356 75.5911 233.068C76.1745 233.327 77.5868 233.521 78.9684 233.489C80.8413 233.457 81.6396 233.295 82.9598 232.615C83.8502 232.162 84.7713 231.45 85.017 231.029C85.6003 230.025 85.8459 222.612 85.3854 219.051C84.5564 212.479 82.1309 206.134 78.6614 201.57C77.6175 200.178 76.7578 198.948 76.7578 198.786C76.7578 198.656 78.078 198.171 79.6746 197.718L82.5914 196.876L83.8809 197.653C88.7013 200.534 93.6752 204.71 96.285 208.044C99.5088 212.188 100.522 215.231 101.474 223.648C102.456 232.356 104.575 240.125 107.277 244.916C111.237 251.941 117.347 258.61 125.606 265.02C129.936 268.322 138.901 273.631 147.866 278.13C158.459 283.439 172.582 287.162 188.21 288.716C194.996 289.428 201.904 291.435 208.259 294.64C220.448 300.759 228.738 309.952 238.625 328.372C243.936 338.246 248.02 350.094 252.717 369.097C253.884 373.888 255.051 378.129 255.296 378.517C256.433 380.33 259.902 381.204 261.806 380.168C262.266 379.909 263.709 379.391 264.968 379.003C267.516 378.226 271.293 376.478 272.951 375.345C273.534 374.924 275.039 373.953 276.297 373.176C277.556 372.399 279.214 371.363 279.982 370.845C283.083 368.87 283.421 368.87 282.776 370.974C281.855 373.823 279.091 376.51 276.083 377.449C274.087 378.064 275.008 378.452 277.556 378.064C283.451 377.19 286.951 373.37 287.658 367.09C287.78 366.021 287.934 365.082 288.026 365.018C288.087 364.953 289.193 364.047 290.452 362.978C291.71 361.942 294.596 359.353 296.838 357.248C299.448 354.788 301.075 353.461 301.351 353.59C302.057 353.849 301.935 357.151 301.167 359.579C300.522 361.586 299.079 363.496 297.206 364.888L296.439 365.471L297.483 365.277C299.171 365.018 301.628 363.69 302.794 362.428C305.158 359.935 306.049 355.986 305.066 352.393C304.79 351.421 304.575 350.353 304.575 350.029C304.575 349.706 306.141 347.763 308.044 345.724C309.948 343.652 312.281 341.03 313.203 339.864C314.707 338.019 314.983 337.825 315.413 338.213C316.089 338.764 316.549 340.609 316.549 342.616C316.549 344.688 315.475 347.148 313.97 348.54C312.589 349.803 312.711 349.835 314.922 348.702C317.777 347.213 319.927 344.105 319.927 341.386C319.927 340.609 319.313 338.44 318.238 335.365L317.747 333.973L319.681 331.318C320.725 329.894 321.707 328.631 321.83 328.599C321.953 328.534 322.076 328.275 322.076 328.016C322.076 327.757 322.199 327.563 322.321 327.563C322.444 327.563 322.782 327.077 323.028 326.495C323.304 325.944 324.071 324.293 324.747 322.869C327.019 318.11 327.173 315.877 325.361 314.064C324.164 312.834 323.703 312.704 315.137 311.053C296.93 307.525 287.412 303.834 275.561 295.709C273.596 294.349 271.876 293.248 271.692 293.248C271.538 293.248 271.416 293.086 271.416 292.925C271.416 292.73 271.262 292.601 271.109 292.601C270.157 292.601 258.428 283.569 254.959 280.17C253.731 279.004 252.595 278.033 252.441 278.033C252.011 278.033 245.441 270.652 238.87 262.818C235.954 259.354 231.287 253.948 228.554 250.776C224.747 246.47 223.519 244.852 223.519 244.237C223.519 243.427 223.611 243.395 225.085 243.395C228.462 243.395 236.936 240.967 240.498 238.992C241.296 238.539 241.941 238.248 241.941 238.345C241.941 238.41 243.537 237.568 245.502 236.403L249.064 234.298L254.775 234.007C260.547 233.716 261.775 233.554 265.736 232.55C272.552 230.802 277.157 226.302 276.512 221.997C276.359 220.961 275.161 217.691 275.1 218.145C275.069 218.242 275.039 219.019 275.008 219.925C274.854 223.324 272.552 226.302 268.437 228.374C265.766 229.734 261.191 230.996 257.876 231.288C255.45 231.514 255.45 231.514 255.45 230.737C255.45 230.155 255.88 229.669 257.047 228.827C260.854 226.108 265.858 221.544 271.661 215.458C275.069 211.897 277.863 208.854 277.863 208.692C277.863 208.271 279.951 207.494 282.1 207.106C290.851 205.552 297.667 201.635 299.355 197.167C299.908 195.646 299.57 192.926 298.588 191.146C298.127 190.337 297.728 189.657 297.667 189.657C297.636 189.657 297.667 190.304 297.728 191.081C297.82 191.891 297.667 193.25 297.36 194.351C296.377 197.944 292.017 201.473 286.337 203.286C282.407 204.548 282.438 203.901 286.644 198.333C293.061 189.851 293.583 189.107 298.772 180.916L300.737 177.841L303.961 176.643C316.334 171.982 322.014 165.442 319.036 159.292C318.361 157.932 316.273 155.698 316.703 156.799C316.826 157.155 317.01 158.353 317.102 159.453C317.348 163.176 315.567 166.381 311.545 169.392C309.457 170.946 305.465 173.147 304.729 173.147C304.207 173.147 304.084 171.561 304.544 171.043C305.68 169.78 312.742 154.565 315.536 147.282C316.457 144.886 317.409 142.749 317.655 142.49C317.869 142.231 319.712 141.066 321.677 139.901C328.124 136.113 332.914 131.969 335.462 127.923C338.655 122.84 337.98 117.92 333.559 114.197C332.453 113.291 331.502 112.578 331.44 112.675C331.348 112.74 331.655 113.323 332.054 113.97C333.467 116.139 333.835 117.596 333.682 120.315C333.528 123.164 332.699 125.139 330.488 128.182C327.94 131.71 321.769 136.89 320.172 136.89C319.681 136.89 319.681 135.822 320.172 134.592C322.137 129.477 325.883 113.647 327.449 103.87C327.909 101.119 328.339 98.6259 328.431 98.3669C328.523 98.1079 328.585 97.5576 328.554 97.1368C328.493 96.5864 328.984 95.9066 330.396 94.547C341.542 83.7994 345.963 77.3573 347.007 70.3001C347.866 64.4731 344.55 59.8115 338.072 57.772C335.892 57.0922 335.462 57.1246 336.844 57.9015C338.379 58.7432 340.406 61.0093 341.357 62.9192C342.125 64.4084 342.186 64.8616 342.186 68.2607C342.186 71.854 342.156 72.0806 340.989 74.897C339.515 78.5227 337.243 82.1808 334.234 85.8065C331.993 88.5257 330.826 89.6264 330.243 89.6264C329.936 89.6264 330.059 87.4575 330.826 76.8393C331.072 73.2784 331.379 65.3472 331.502 59.1964L331.686 48.028L334.91 44.467C342.309 36.3092 347.16 28.3456 349.248 20.8352C350.261 17.2419 350.384 11.8357 349.524 9.14881C348.204 5.00515 345.103 2.28587 339.884 0.732002C337.612 0.0521837 330.212 -0.27154 329.445 0.27879Z" fill="#2193DE"/>
</svg>
