<?xml version="1.0" encoding="UTF-8" standalone="no"?>
<!-- Created with Inkscape (http://www.inkscape.org/) -->

<svg
   xmlns:dc="http://purl.org/dc/elements/1.1/"
   xmlns:cc="http://creativecommons.org/ns#"
   xmlns:rdf="http://www.w3.org/1999/02/22-rdf-syntax-ns#"
   xmlns:svg="http://www.w3.org/2000/svg"
   xmlns="http://www.w3.org/2000/svg"
   xmlns:sodipodi="http://sodipodi.sourceforge.net/DTD/sodipodi-0.dtd"
   xmlns:inkscape="http://www.inkscape.org/namespaces/inkscape"
   id="svg4176"
   version="1.1"
   inkscape:version="0.91 r13725"
   width="270"
   height="547.5"
   viewBox="0 0 270 547.5"
   sodipodi:docname="HandSilhouette.svg">
  <metadata
     id="metadata4182">
    <rdf:RDF>
      <cc:Work
         rdf:about="">
        <dc:format>image/svg+xml</dc:format>
        <dc:type
           rdf:resource="http://purl.org/dc/dcmitype/StillImage" />
        <dc:title></dc:title>
      </cc:Work>
    </rdf:RDF>
  </metadata>
  <defs
     id="defs4180" />
  <sodipodi:namedview
     pagecolor="#ffffff"
     bordercolor="#666666"
     borderopacity="1"
     objecttolerance="10"
     gridtolerance="10"
     guidetolerance="10"
     inkscape:pageopacity="0"
     inkscape:pageshadow="2"
     inkscape:window-width="1600"
     inkscape:window-height="837"
     id="namedview4178"
     showgrid="false"
     inkscape:zoom="1.2237443"
     inkscape:cx="135"
     inkscape:cy="273.75"
     inkscape:window-x="-8"
     inkscape:window-y="-8"
     inkscape:window-maximized="1"
     inkscape:current-layer="svg4176" />
  <path
     style="fill:#000000"
     d="M 8.2842648,546.32812 C 8.1999853,545.68359 7.9956906,537.14062 7.8302764,527.34375 7.6648622,517.54687 7.2844238,504.67969 6.9848578,498.75 5.700877,473.33455 6.3603969,468.94155 12.296224,463.37142 c 1.229264,-1.15353 3.711588,-3.56195 5.516276,-5.35205 1.804687,-1.7901 7.036372,-5.1628 11.625967,-7.49489 12.603522,-6.40416 14.705715,-9.55358 9.314639,-13.9548 C 34.470843,433.07369 23.4375,420.35652 23.4375,418.91672 c 0,-0.39963 -1.265625,-2.72229 -2.8125,-5.16145 -1.546875,-2.43917 -2.8125,-5.01109 -2.8125,-5.71538 0,-1.15145 -5.165797,-12.84063 -7.76521,-17.57114 C 9.4806188,389.4375 8.4865383,384.79687 7.8382233,380.15625 7.1899082,375.51562 6.0535012,368.97656 5.3128744,365.625 4.5722476,362.27344 3.6615819,355.10156 3.289173,349.6875 2.916764,344.27344 2.1230167,335.83594 1.5252901,330.9375 -1.186049,308.71777 1.8507248,256.18426 7.0108372,236.04237 c 0.7846645,-3.06285 1.4328025,-8.38239 1.4403065,-11.82122 0.0075,-3.43882 0.6975078,-8.15084 1.5333419,-10.47115 2.0162454,-5.59718 2.0463264,-15.75938 0.087365,-29.51361 -0.9009297,-6.32557 -1.3571837,-13.29651 -1.0444354,-15.95751 0.3124863,-2.65877 -0.076303,-8.61125 -0.8890358,-13.6114 -1.1858687,-7.29577 -1.3798554,-16.0311 -1.0838435,-48.80611 L 7.4150781,65.94148 10.769848,59.337933 c 8.174672,-16.091068 25.678921,-13.611776 27.840524,3.943317 0.380942,3.09375 1.108172,8.578125 1.616069,12.1875 0.507896,3.609375 1.170061,13.101562 1.471477,21.09375 0.301416,7.99219 0.953292,18.11719 1.448614,22.5 0.495321,4.38281 0.904046,11.35978 0.908276,15.50438 0.0042,4.1446 0.637134,12.5821 1.406452,18.75 0.769318,6.1679 1.402131,16.56838 1.40625,23.11216 0.007,11.18156 0.729244,14.55914 2.520836,11.78938 0.422347,-0.65295 0.859428,-16.58561 0.971292,-35.40592 0.111863,-18.82031 0.225273,-37.59375 0.25202,-41.71875 0.02675,-4.125 0.06776,-12.351563 0.09115,-18.28125 0.02338,-5.929688 0.198989,-17.742188 0.390233,-26.25 0.191244,-8.507813 0.409009,-22.007813 0.483921,-30 0.197571,-21.07879 3.904711,-26.244902 18.006,-25.0924 15.777707,1.289516 18.836447,8.304883 19.115539,43.8424 0.09921,12.632812 0.652155,32.252258 1.228765,43.598766 0.576609,11.346514 1.013928,34.910484 0.971821,52.364394 -0.07524,31.19116 0.07951,33.74574 1.932076,31.89317 1.59882,-1.59882 2.077724,-41.36729 1.596139,-132.54383 -0.03675,-6.960938 0.430191,-15.609375 1.037672,-19.21875 0.607491,-3.609375 1.284759,-9.005859 1.505053,-11.992187 1.106785,-15.0039522 10.446989,-22.1360258 23.608739,-18.0273702 6.07473,1.8963269 12.1216,7.0038796 12.86206,10.8640842 3.76572,19.63158 3.85694,38.086541 0.70643,142.905473 -0.87611,29.14833 -0.81935,30.85058 1.04081,31.21452 2.70984,0.53017 5.94506,-32.45301 5.45262,-55.58952 -0.0329,-1.54688 0.38362,-9.5625 0.92564,-17.8125 0.54203,-8.25 1.15956,-18.796875 1.37228,-23.4375 0.21273,-4.640625 0.82436,-13.289063 1.3592,-19.21875 0.53483,-5.929688 1.01484,-13.101563 1.0667,-15.9375 0.38736,-21.184764 16.97055,-33.859461 29.86264,-22.82431 8.54115,7.310903 8.75137,9.034724 8.957,73.44931 0.093,29.13281 0.4952,59.29687 0.89379,67.03125 0.40316,7.8234 0.3477,17.05148 -0.12502,20.79946 -0.48034,3.80853 -0.51911,11.95881 -0.0892,18.75 0.41829,6.60717 1.22339,19.18491 1.78912,27.95054 0.56573,8.76563 1.30417,20.43931 1.64098,25.94152 0.83034,13.56431 2.4049,14.80203 4.76618,3.74658 1.51312,-7.08438 3.7189,-16.73577 4.7496,-20.78185 0.45972,-1.80469 1.70956,-7.28906 2.77741,-12.1875 2.59904,-11.92236 9.1242,-27.32504 12.32372,-29.09023 0.82747,-0.45653 4.93644,-3.55602 9.13103,-6.88779 4.1946,-3.33176 9.21288,-6.56572 11.15175,-7.18659 1.93886,-0.62086 4.36896,-1.84012 5.40021,-2.70945 3.46036,-2.91705 6.93781,-3.75541 18.22264,-4.39316 l 11.22284,-0.63426 1.1581,2.54177 c 0.92287,2.02549 0.91625,3.33895 -0.0326,6.46637 -0.65489,2.15853 -1.49414,6.03396 -1.86499,8.61209 -0.83205,5.78419 -1.93039,7.83897 -6.18864,11.57777 -1.83456,1.61075 -3.74237,3.99865 -4.23958,5.30642 -0.49721,1.30776 -2.38733,4.69653 -4.20027,7.53061 -1.81293,2.83407 -3.29624,5.59587 -3.29624,6.13733 0,0.54145 -1.22586,4.01373 -2.72412,7.71617 -9.76518,24.13118 -12.91383,41.88243 -12.32922,69.50868 0.20697,9.78062 -1.22376,19.09889 -3.748,24.41052 -3.60255,7.58066 -9.70315,25.49238 -14.36876,42.1875 -3.46529,12.39999 -7.08761,22.10943 -9.35926,25.08702 -10.29677,13.49662 -16.23042,18.81334 -22.42116,20.08999 -9.53164,1.96562 -9.17731,19.78139 0.44326,22.28723 19.81295,5.16062 29.30993,16.83825 27.0634,33.27756 -1.12219,8.21172 -1.36205,13.06343 -2.5395,51.36757 l -0.55476,18.04688 -100.19969,0 C 29.184163,547.5 8.4057722,547.25736 8.2842648,546.32812 Z"
     id="path4186"
     inkscape:connector-curvature="0" />
</svg>
