<svg width="377" height="377" viewBox="0 0 377 377" fill="red" xmlns="http://www.w3.org/2000/svg">
<path d="M199.889 0.234658C197.914 0.584491 195.852 2.61988 191.726 8.2172C189.428 11.3657 188.219 12.7014 186.599 13.9099C185.656 14.6096 184.624 14.8322 176.255 16.1997L174.104 16.5814L171.599 20.6521C170.244 22.8783 168.269 26.4721 167.208 28.6347L165.322 32.5782L167.061 34.55C169.33 37.1261 169.949 37.1897 174.34 35.2179C180.528 32.4192 186.039 28.9845 189.663 25.6134C191.461 23.9596 193.258 23.3872 196.706 23.419C202.364 23.4826 208.435 26.6947 216.391 33.8504L219.898 36.9989H222.727C225.055 37.0307 225.851 37.1579 227.177 37.7939C230.919 39.5431 234.603 42.8188 236.548 46.1581C237.196 47.2394 239.435 51.9144 241.557 56.5577C244.475 62.9182 245.948 65.7487 247.569 68.0703C248.748 69.7877 249.808 71.187 249.897 71.187C249.985 71.187 250.015 70.0103 249.926 68.5474C249.779 65.3671 250.28 58.0842 250.899 54.1724C253.728 36.49 262.038 20.1433 272.912 10.8568C274.709 9.3303 275.063 8.56703 274.562 7.39032C273.796 5.60935 269.375 3.12873 264.837 1.95202C262.215 1.28416 255.525 1.18875 253.109 1.82481C248.718 2.93791 245.182 4.55986 241.587 7.1359C239.406 8.69424 238.61 8.82145 234.75 8.18539C231.479 7.67655 228.473 6.78606 221.283 4.24183C213.857 1.60218 210.881 0.743505 207.875 0.266461C205.606 -0.083371 201.745 -0.083371 199.889 0.234658Z" fill="#577c4e"/>
<path d="M284.493 4.49624C282.312 5.29131 281.487 5.95918 279.896 8.12177C279.041 9.29848 275.858 12.9876 272.853 16.3269C269.847 19.6344 266.782 23.1646 266.045 24.1187C263.894 26.8855 261.773 30.6064 259.592 35.4087C254.906 45.8083 253.109 53.6 253.521 61.8051C253.757 67.1162 254.405 69.7877 256.557 74.7171L257.883 77.7702L260.004 78.1836C265.25 79.1695 269.14 81.7456 274.473 87.7245C281.693 95.8343 285.73 100.064 287.381 101.241L289.09 102.481L294.6 100.986C302.557 98.8555 303.235 98.7283 307.625 98.7283C314.904 98.6965 318.47 100.35 323.98 106.329C326.633 109.191 328.931 112.372 334.147 120.482C341.779 132.344 345.316 136.383 351.71 140.517C354.009 142.012 359.342 147.737 361.17 150.694C364.028 155.306 366.12 160.68 367.299 166.31C367.977 169.553 368.242 178.108 367.712 180.684C367.122 183.738 365.501 185.996 361.7 189.112C359.902 190.543 357.722 192.388 356.838 193.183C355.954 193.978 353.832 195.6 352.123 196.809C346.465 200.752 343.931 204.505 343.636 209.371C343.459 212.774 343.665 213.028 346.759 213.028C349.294 213.028 351.916 212.392 354.745 211.12C364.647 206.636 366.356 205.586 369.539 202.024C372.751 198.399 374.931 194.169 376.316 188.858C376.965 186.409 377.024 185.582 376.994 179.794C376.965 176.073 376.699 170.317 376.316 165.96C375.992 161.857 375.697 156.673 375.697 154.415V150.313L374.342 146.942C370.069 136.383 363.056 126.397 352.565 116.029C348.292 111.768 347.526 110.623 346.288 106.488C345.05 102.386 344.756 100.191 343.547 85.9754C343.194 81.841 342.369 76.8161 341.661 74.7171C340.748 71.9185 337.3 65.9077 329.137 52.9003C321.063 40.0201 317.674 32.5464 316.142 24.1823C315.611 21.32 315.552 20.0797 315.67 16.3269C315.759 13.8781 316.024 10.984 316.26 9.87094C316.466 8.75783 316.584 7.80375 316.466 7.74014C316.171 7.54932 311.073 6.30901 308.392 5.80016C301.113 4.36903 286.939 3.60576 284.493 4.49624Z" fill="#577c4e"/>
<path d="M91.3272 12.2243C78.8031 13.3056 70.4636 15.3092 61.3578 19.4118L59.2066 20.3659V22.9419C59.2066 24.373 59.1182 27.1399 59.0004 29.0799L58.8235 32.6418L60.8569 33.1188C63.1554 33.6913 65.4834 34.0411 71.436 34.7726C79.7756 35.7903 84.4316 37.3168 87.4963 40.0519C88.1152 40.5925 88.1446 40.6879 87.6437 40.5289C86.7596 40.3063 81.1311 39.1614 78.9505 38.7798C73.3515 37.7939 71.8486 37.6667 66.4264 37.6667C59.6781 37.6667 56.3187 38.2073 54.3443 39.6066C51.2207 41.801 49.7767 43.5502 49.7767 45.1403C49.7767 46.0944 51.3386 47.5574 54.2559 49.3383C56.525 50.7377 61.4168 54.5858 61.2105 54.8084C61.1516 54.872 60.0023 54.6494 58.6173 54.3314C54.7864 53.4727 50.7492 52.9639 49.3052 53.2183C47.5666 53.4727 46.2111 54.7766 45.0618 57.2573C44.5903 58.3386 44.1777 59.3563 44.1777 59.5471C44.1777 59.7379 45.6806 60.533 47.5077 61.2962C54.7864 64.3811 59.5013 67.5296 62.3303 71.1551L63.1554 72.2364L62.4482 72.0774C54.8158 70.1693 54.4033 70.1056 49.1874 70.1056C43.2642 70.0738 41.2014 70.5191 36.9285 72.8089C34.6005 74.0174 34.5121 74.1446 34.129 75.5439C33.8343 76.7207 33.8343 77.5475 34.0995 79.6147C34.571 83.1449 34.5416 83.8127 33.8049 85.8163C33.2744 87.2792 33.1566 88.2015 33.1566 91.3818C33.1566 95.7706 33.5396 97.4562 35.9561 103.562C39.0502 111.322 39.3155 112.181 40.0522 117.301C41.0246 123.948 41.4666 128.019 41.7908 133.839C42.9401 153.652 42.8222 152.761 44.885 156.164C50.2482 165.069 54.9337 177.949 58.4699 193.469C58.7351 194.678 59.1772 196.109 59.4129 196.65C61.181 200.434 65.1887 206.699 69.0491 211.692C72.9389 216.781 83.9601 223.237 95.0108 226.99C102.79 229.597 110.806 231.378 124.479 233.573C126.277 233.827 129.371 234.336 131.404 234.654L135.088 235.258L135.883 234.241C136.974 232.905 138.948 228.802 139.685 226.322C141.453 220.311 140.923 214.459 138.094 208.894C137.445 207.59 135.383 203.805 133.526 200.466C126.984 188.699 124.98 183.26 124.685 176.805C124.479 171.334 125.157 168.599 128.31 162.461C134.646 150.122 136.001 138.164 133.467 116.029C133.29 114.534 132.966 111.545 132.73 109.35C131.935 102.163 131.051 98.0286 129.165 92.6539C125.805 83.0176 124.037 75.9574 124.037 72.141C124.037 70.6781 123.949 70.2011 123.684 70.3283C123.477 70.4237 120.766 71.6322 117.701 72.9997C109.509 76.6571 105.796 79.0741 103.321 82.4452C100.492 86.3251 99.6078 90.2051 99.3721 99.6506C99.1069 110.591 100.138 117.206 105.177 137.178C109.273 153.398 110.688 160.744 110.983 167.232C111.101 170.062 111.012 171.334 110.629 172.956C110.187 174.801 108.478 178.84 108.242 178.585C108.183 178.554 107.947 175.787 107.682 172.479C106.739 159.854 104.617 149.168 100.168 134.793C98.2523 128.496 93.1837 114.185 92.2113 112.213C92.0345 111.895 91.4156 108.555 90.8263 104.834C89.8538 98.7601 89.7359 97.4562 89.7359 92.1769C89.7065 86.9612 89.7949 86.0071 90.3842 83.8127C91.5335 79.5511 93.0364 76.7525 95.8654 73.6676C102.113 66.8617 109.892 61.9641 119.116 59.1018C122.24 58.1477 122.328 58.1159 128.074 58.2113C133.143 58.3068 134.115 58.2432 135.471 57.7343C136.325 57.3845 137.21 56.812 137.416 56.4622C137.652 56.0806 138.182 54.395 138.624 52.7412C139.037 51.0875 139.921 48.5433 140.539 47.1439L141.718 44.5361L143.84 43.582C148.378 41.5784 152.179 40.5607 157.248 39.9883L160.843 39.6066L158.898 37.2532C153.005 30.1294 144.753 24.5956 130.078 17.8216C120.501 13.401 121.444 13.6872 114.165 12.7968C110.57 12.3515 94.4803 11.9381 91.3272 12.2243Z" fill="#577c4e"/>
<path d="M189.811 31.7514C183.74 35.4406 180.852 36.8081 173.544 39.3205C158.957 44.3772 155.657 45.5857 152.386 47.0168C149.203 48.3844 148.437 48.8932 146.109 51.024C144.665 52.3597 143.486 53.6 143.486 53.7591C143.486 54.3315 144.96 57.8298 146.698 61.2645C149.586 67.0209 151.472 72.2366 151.089 73.4133C151.06 73.5723 149.734 72.5546 148.201 71.1235C146.669 69.7241 144.901 68.1976 144.252 67.7842C142.514 66.5756 140.038 65.7806 138.153 65.7806C136.473 65.7806 136.473 65.7806 134.97 67.5615C132.966 69.9149 131.227 73.1588 130.137 76.53C129.283 79.1378 129.224 79.583 129.224 84.2263C129.194 91.1275 129.842 94.0852 134.498 108.078C138.418 119.973 138.919 122.644 139.213 133.203C139.361 139.055 139.302 141.503 138.948 144.493C137.946 153.048 136.267 159.854 132.347 171.366C130.756 176.01 130.668 176.455 130.668 179.158C130.668 184.024 131.817 186.632 137.357 194.36C142.425 201.42 143.251 203.519 143.81 210.579C144.311 217.353 143.84 220.597 140.569 233.032C137.563 244.354 137.475 244.895 137.475 251.033C137.475 256.089 137.534 256.598 138.241 258.761C139.361 262.132 140.687 264.326 143.192 267.061C148.702 273.04 152.238 275.744 155.775 276.634C158.044 277.206 162.935 277.143 168.417 276.475C170.892 276.189 173.102 275.998 173.367 276.062C174.133 276.221 170.538 278.669 167.503 280.101C166.03 280.768 163.26 281.945 161.315 282.677C154.095 285.38 154.36 285.253 154.743 285.761C155.362 286.588 160.725 290.278 162.67 291.232C166.206 292.949 170.126 294.38 176.196 296.161C188.72 299.882 189.545 300.232 202.836 307.896C206.077 309.773 208.759 311.236 208.818 311.204C208.847 311.14 208.169 306.402 207.285 300.645C204.574 283.026 203.602 273.867 203.602 265.63C203.602 258.252 202.453 253.386 198.828 245.467C196.441 240.283 185.626 222.728 183.475 220.565C182.62 219.707 180.351 217.958 178.436 216.622C175.018 214.3 174.752 214.173 169.006 212.392C165.735 211.406 162.11 210.325 160.961 210.007C159.782 209.721 158.81 209.339 158.81 209.212C158.81 208.671 163.201 204.6 165.617 202.883C167.032 201.897 169.448 200.434 170.98 199.671C174.192 198.049 174.045 198.335 174.192 193.819L174.281 191.307L170.892 190.066C165.853 188.222 158.221 185.868 154.566 185.01L151.354 184.278L152.651 183.706C155.775 182.275 161.256 181.098 167.385 180.589C169.713 180.398 172.483 180.144 173.544 180.017L175.46 179.794L175.843 178.204C176.815 174.101 177.169 170.762 177.139 165.324C177.139 156.578 175.931 149.613 171.481 132.567C169.212 123.885 169.507 119.432 173.249 106.011C176.078 95.9934 176.196 95.2619 175.902 91.859C174.782 79.6466 174.782 70.8054 175.843 66.4166C176.756 62.6957 177.581 60.5967 179.114 58.0843C180.823 55.222 181.648 54.4587 186.658 50.865C194.467 45.2995 200.92 42.3736 206.225 42.0556C210.144 41.8012 212.708 40.9743 213.886 39.5432C214.977 38.2074 215.036 37.635 214.152 37.1261C213.768 36.9035 211.529 35.4088 209.171 33.7868C203.042 29.557 200.213 28.2531 196.971 28.2531C195.645 28.2531 194.968 28.5711 189.811 31.7514Z" fill="#577c4e"/>
<path d="M215.684 43.3913C214.8 43.6139 213.15 44.0591 212 44.409C210.733 44.8224 208.582 45.1086 206.401 45.2358C200.979 45.4903 197.089 46.8896 192.551 50.1971C189.84 52.1689 186.216 55.8262 183.888 58.9429C180.057 64.0314 179.703 64.9537 179.114 71.028C178.789 74.1765 178.848 75.385 179.585 83.4312C180.823 96.9474 180.469 101.559 177.67 107.442C176.019 110.941 175.784 111.958 175.813 115.87C175.843 119.718 176.226 121.913 177.964 128.591C178.613 131.04 179.408 134.411 179.732 136.065C180.057 137.719 180.587 140.358 180.911 141.949C182.827 151.617 183.062 161.73 181.795 180.112C180.793 194.551 180.558 201.134 181.118 199.448C181.176 199.257 183.77 194.964 186.834 189.907C195.528 175.691 198.386 170.317 201.038 163.098C203.484 156.514 205.134 147.291 204.692 142.807C204.574 141.821 204.309 138.991 204.044 136.542C203.337 129.196 203.631 121.531 204.928 114.185C205.694 109.796 205.075 107.347 200.832 98.3786C198.504 93.4491 198.239 92.7812 198.091 90.6822C197.856 87.6292 198.445 85.9754 200.508 83.8128C206.372 77.5476 219.014 73.2224 228.09 74.3355C232.363 74.8444 240.025 76.9434 242.706 78.3109C244.327 79.1696 245.565 80.1237 247.245 81.9046C248.541 83.2404 249.573 84.1944 249.573 84.0036C249.573 83.8128 249.307 82.1909 248.983 80.3781C247.363 71.5369 243.384 62.632 237.343 54.2679C234.632 50.5469 229.239 44.2818 228.355 43.8683C226.116 42.8188 219.102 42.5644 215.684 43.3913Z" fill="#577c4e"/>
<path d="M253.138 85.2121C249.101 85.7846 244.769 87.7564 241.911 90.2688L240.879 91.1911L242.206 92.3678C242.942 93.0039 245.477 95.6435 247.834 98.1877C252.107 102.799 256.056 107.919 260.093 113.994C261.272 115.743 262.45 117.397 262.745 117.715C263.04 118.001 265.603 119.528 268.403 121.118C274.179 124.393 276.507 125.984 278.245 127.923C279.778 129.641 281.045 132.567 281.281 134.952C281.428 136.797 281.369 136.956 280.043 139.468C276.507 146.147 270.937 151.203 263.924 154.161C260.83 155.433 255.967 156.737 254.17 156.737C250.28 156.737 237.874 163.575 229.681 170.285C226.882 172.543 224.76 174.547 225.851 173.847C226.322 173.561 233.1 172.066 237.343 171.334C241.557 170.603 255.584 170.062 255.024 170.635C254.671 171.016 250.751 172.479 242.353 175.342C236.665 177.282 235.929 177.631 233.218 179.54C225.939 184.692 219.633 190.384 216.097 194.964C212.59 199.448 211.558 200.879 211.558 201.07C211.558 201.197 218.425 197.572 226.823 192.992C235.192 188.444 242.323 184.724 242.648 184.724C243.001 184.724 244.769 184.374 246.626 183.928C265.574 179.571 281.87 171.684 294.306 160.871L297.223 158.359L297.4 156.514C297.665 153.97 298.755 149.486 300.818 142.489C303.647 132.917 304.384 129.514 304.384 125.793C304.384 122.612 302.999 121.308 297.518 119.305C293.215 117.747 290.887 116.156 287.41 112.404C285.318 110.114 283.579 107.76 281.369 104.294C275.358 94.7212 272.263 90.6504 269.759 88.9331C265.515 86.0708 258.384 84.4807 253.138 85.2121Z" fill="#577c4e"/>
<path d="M225.998 91.5727C225.114 91.7318 223.758 92.0816 223.022 92.336L221.695 92.8131L218.925 99.9051C215.743 108.11 214.24 112.753 213.12 117.906C212.413 121.245 212.325 122.263 212.266 128.432C212.236 132.185 212.089 136.319 211.941 137.56C211.794 138.832 211.765 139.881 211.883 139.881C212.059 139.881 216.214 135.175 219.043 131.772L219.839 130.818L219.662 133.902C219.338 139.214 217.747 146.21 215.713 151.171C215.36 151.998 215.095 152.793 215.095 152.952C215.095 153.398 218.159 153.27 220.517 152.762C221.695 152.507 223.847 151.839 225.291 151.299C233.866 148.15 236.577 147.832 241.675 149.39C249.897 151.871 258.885 151.489 266.075 148.373C270.525 146.433 276.183 141.758 277.302 139.086C278.157 137.115 278.069 132.249 277.155 130.341C276.271 128.464 274.503 127.033 271.998 126.174L269.935 125.443L267.548 126.143C266.222 126.524 262.922 127.701 260.211 128.719C253.492 131.263 250.604 132.026 247.333 132.058L244.651 132.09L242.058 129.45C237.608 124.87 234.485 122.994 230.359 122.294C228.09 121.945 227.913 121.849 227.383 120.863C226.44 119.146 226.293 117.81 225.998 109.669C225.703 101.273 225.851 99.8097 227 99.0146C227.353 98.7602 228.591 98.4104 229.711 98.2514C230.831 98.0605 232.51 97.7743 233.453 97.6153C236.665 96.9474 238.522 96.5976 240.29 96.2796C241.263 96.0888 242.088 95.8979 242.176 95.8343C242.353 95.6435 238.876 93.9898 236.135 92.9721C233.925 92.1452 229.475 91.1911 228.208 91.2547C227.884 91.2865 226.882 91.4137 225.998 91.5727Z" fill="#577c4e"/>
<path d="M24.5812 102.926C15.7113 108.651 7.63691 115.075 3.01037 120.036L0.328741 122.93L0.122462 125.061C-0.319564 129.386 0.35821 132.312 3.42293 139.404C6.75286 147.069 6.51711 145.733 5.36784 150.853C4.54273 154.606 4.39538 155.783 4.48379 158.327C4.54273 160.967 4.6606 161.571 5.42678 163.034C5.89827 163.956 6.72339 165.165 7.25382 165.674C8.22628 166.564 8.34415 166.596 11.2615 166.596C14.3262 166.564 16.0354 166.405 21.4871 165.546C25.1411 164.974 27.9701 164.72 27.9701 164.974C27.9701 165.101 25.1706 166.66 21.7817 168.472C18.3634 170.285 14.4146 172.607 12.9707 173.593C9.84704 175.787 5.95721 179.667 5.33837 181.225C5.01422 182.052 4.83741 184.374 4.6606 190.13C4.51326 195.568 4.30698 198.462 3.98283 199.671C3.57027 201.229 1.89057 210.866 1.53695 213.664C1.36014 215.191 3.03984 218.244 5.57412 220.979C7.43063 222.983 13.4717 228.484 17.1552 231.538C22.3416 235.831 28.53 237.771 39.1681 238.439C52.7236 239.329 56.7018 239.933 61.4168 241.969L62.3008 242.351L61.5641 242.764C60.4738 243.368 56.1419 244.927 50.8081 246.612C48.2149 247.407 45.9753 248.202 45.8575 248.329C45.7101 248.457 46.4468 248.679 47.4782 248.807C49.5115 249.029 57.2028 250.651 59.0593 251.224L60.238 251.605L57.7332 252.527C54.1381 253.831 49.3642 254.69 45.5922 254.69C43.8536 254.69 42.4096 254.785 42.4096 254.881C42.4096 255.485 46.2405 263.245 47.8318 265.789C53.0477 274.281 60.1496 280.609 67.9588 283.822C69.6679 284.553 70.4636 284.68 73.2041 284.68C77.8602 284.712 81.3964 283.408 83.9306 280.705C86.2881 278.224 90.0306 270.751 94.2741 260.097C98.3996 249.729 101.17 244.64 105.118 240.315C106.828 238.439 107.505 237.485 107.211 237.357C106.975 237.294 105.531 236.785 103.999 236.276C95.8948 233.605 90.4137 230.552 74.2945 219.707C63.0375 212.138 63.6269 212.71 60.6801 206.191C58.7941 202.056 57.6153 198.335 55.5231 189.971C53.8729 183.515 52.4289 178.617 51.2502 175.501C50.6019 173.783 50.0125 172.861 48.9222 171.812C45.0029 167.995 42.2328 162.303 40.9362 155.465C40.1995 151.426 40.1406 143.539 40.7889 138.768C41.2898 135.238 41.2014 133.425 40.2879 128.591C39.1976 122.708 36.4276 114.821 33.3334 108.715C31.6831 105.471 28.8247 100.446 28.589 100.446C28.5005 100.446 26.6735 101.559 24.5812 102.926Z" fill="#577c4e"/>
<path d="M304.089 104.739C301.113 105.439 298.078 106.711 294.247 108.778C292.331 109.796 290.799 110.718 290.858 110.75C290.917 110.813 293.422 111.831 296.427 113.008C302.645 115.457 305.15 116.824 306.918 118.796C309.276 121.404 309.688 124.68 308.156 128.591C304.914 136.796 305.18 135.779 304.944 140.994C304.531 150.408 302.321 157.818 296.781 168.599L294.512 172.988L290.327 175.501C284.257 179.19 282.548 179.858 277.185 180.589C266.812 182.02 259.592 184.119 251.783 187.967C250.015 188.826 248.04 189.78 247.451 190.066C246.832 190.384 246.331 190.671 246.331 190.766C246.331 191.02 250.339 191.657 254.671 192.102C264.66 193.119 277.538 190.162 288.913 184.278C293.864 181.702 297.017 179.667 301.201 176.264C302.852 174.928 305.798 173.02 308.185 171.748C312.075 169.649 317.144 167.55 318.352 167.55C318.735 167.55 318.087 168.504 316.142 170.762C308.126 180.144 305.238 185.041 303.795 191.816C302.233 199.194 300.052 204.314 297.076 207.685C294.571 210.547 292.891 211.533 288.176 213.06C283.196 214.682 275.976 215.381 269.022 214.904C263.835 214.555 263.305 214.459 247.657 210.293C240.555 208.417 235.546 207.622 230.536 207.622C224.377 207.622 221.224 208.258 215.448 210.706C211.44 212.392 209.908 213.187 204.339 216.526C202.07 217.894 199.064 219.611 197.649 220.375C194.997 221.806 194.761 222.06 194.761 224.096C194.761 225.272 195.203 226.322 196.913 229.152L198.121 231.156H201.392C204.545 231.156 205.959 230.997 215.979 229.566C219.868 228.993 221.725 228.898 225.261 229.025C230.713 229.216 232.54 229.756 237.844 232.619C246.154 237.103 249.867 238.28 255.348 238.089C258.649 237.993 259.032 237.93 259.946 237.198C266.988 231.506 271.085 230.456 289.06 229.597L295.396 229.279L297.429 228.071C298.52 227.403 301.938 224.827 304.973 222.346C310.955 217.512 313.401 215.859 316.613 214.427C318.381 213.664 319.236 213.505 322.802 213.314C325.071 213.187 327.693 212.869 328.607 212.583C334.147 210.961 339.363 206.858 345.433 199.416C347.82 196.522 349.382 195.028 353.007 192.102C361.405 185.328 363.35 182.434 364.352 175.342C365.501 167.168 363.969 162.112 356.897 150.535C352.506 143.316 352.329 143.125 341.219 134.952C338.42 132.853 335.974 130.754 334.118 128.75C331.554 126.015 331.112 125.347 329.697 122.231C327.929 118.287 324.01 112.435 321.269 109.573C317.556 105.661 315.287 104.675 309.688 104.421C307.036 104.326 305.474 104.389 304.089 104.739Z" fill="#577c4e"/>
<path d="M235.133 105.852C235.133 107.506 235.929 109.16 237.461 110.782C238.139 111.449 238.669 112.117 238.669 112.245C238.669 112.372 238.05 112.563 237.284 112.69C233.984 113.23 231.98 114.916 232.304 116.92C232.628 119.241 234.868 121.149 238.227 122.04C239.73 122.453 248.129 122.612 248.689 122.231C249.307 121.817 249.956 118.478 249.779 116.57C249.602 114.566 248.011 110.591 247.009 109.605C245.889 108.524 236.99 104.58 235.664 104.58C235.251 104.58 235.133 104.834 235.133 105.852Z" fill="#577c4e"/>
<path d="M232.481 154.002C225.291 155.465 217.953 159.885 210.674 167.105C205.37 172.384 200.508 178.427 193.052 188.953C189.604 193.819 183.475 203.933 183.77 204.251C183.888 204.346 185.302 204.441 186.952 204.441C192.05 204.441 195.38 202.851 201.598 197.508C207.079 192.77 209.525 190.162 217.01 181.066C227.854 167.9 231.567 164.338 240.496 158.709C245.359 155.656 246.125 155.147 245.977 154.988C245.919 154.924 244.504 154.574 242.824 154.225C239.436 153.493 235.516 153.398 232.481 154.002Z" fill="#577c4e"/>
<path d="M325.012 216.208C321.8 216.622 318.057 217.735 316.024 218.88C313.696 220.184 311.604 222.474 307.861 227.817C304.531 232.555 303.235 233.891 300.789 235.131C298.962 236.053 295.867 236.212 294.247 235.481C290.711 233.891 284.021 233.414 279.571 234.463C277.037 235.068 274.12 236.181 272.028 237.357C269.7 238.661 269.788 238.407 270.819 241.365C273.943 250.492 275.505 258.983 275.505 266.902C275.505 270.782 274.326 279.242 273.766 279.623C273.648 279.719 272.912 277.524 272.145 274.789C268.668 262.354 265.014 254.69 260.299 249.951C257.676 247.312 254.7 245.912 252.372 246.199C251.635 246.262 250.928 246.421 250.84 246.548C250.751 246.644 251.193 248.552 251.871 250.778C254.199 258.634 255.319 264.74 255.643 271.418C255.82 275.521 255.496 280.196 254.818 282.836C254.494 284.108 254.494 284.076 253.669 279.814C250.044 260.51 245.093 250.174 235.722 242.35C230.565 238.025 226.381 235.863 221.077 234.781C217.098 233.986 209.879 234.272 205.223 235.417C203.278 235.926 201.657 236.34 201.598 236.371C201.569 236.435 202.305 237.834 203.248 239.52C205.223 243.018 206.608 246.612 207.58 250.746C208.906 256.344 209.054 258.093 209.083 270.75L209.112 282.836L210.35 286.493C211.706 290.627 212.59 294.825 213.061 299.437C213.444 303.189 213.444 314.957 213.061 320.808C212.825 324.275 212.855 325.261 213.209 326.374C214.24 329.459 215.92 335.756 216.126 337.187L216.332 338.745L215.448 337.664C214.977 337.06 211.794 332.575 208.405 327.678C201.893 318.296 198.091 313.684 194.172 310.313C189.87 306.624 187.718 305.511 179.143 302.522C164.055 297.242 158.663 294.444 153.535 289.196C151.826 287.447 150.294 285.221 146.168 278.542C140.952 270.083 138.005 264.326 136.738 260.096C135.825 257.043 135.235 253.831 135.235 251.764C135.235 250.079 135.176 249.888 134.027 248.711C132.318 246.962 129.253 245.276 126.483 244.513C124.096 243.877 117.878 243.241 114.018 243.241C111.13 243.241 109.627 244.163 106.592 247.757C104.765 249.92 104.146 250.937 103.409 252.973C101.965 256.821 99.4016 262.1 95.1581 269.796C88.6456 281.563 86.0818 287.701 84.2843 295.716C83.9601 297.211 83.4002 299.469 83.0761 300.772C82.4277 303.348 82.3099 307.228 82.8108 308.66C83.3118 310.123 84.5789 311.331 86.7596 312.412C89.6475 313.875 91.1504 315.306 95.0108 320.236C98.6648 324.911 100.551 326.692 103.203 328.028C105.678 329.236 107.594 329.3 111.926 328.346C113.929 327.9 116.11 327.519 116.788 327.519C118.409 327.519 119.794 328.473 120.53 330.127C121.915 333.18 127.072 335.947 132.583 336.551C133.467 336.678 136.532 336.901 139.361 337.06C147.199 337.537 152.297 339.095 162.641 344.152C178.171 351.753 179.173 352.102 191.078 353.947C213.68 357.413 226.086 361.23 237.049 368.036C239.907 369.817 240.673 370.071 247.804 371.598C249.19 371.916 251.164 372.106 252.254 372.075C254.582 371.979 258.796 372.902 262.391 374.269C264.955 375.255 273.118 377.259 273.383 376.972C273.766 376.559 274.297 372.393 274.326 369.594C274.356 360.435 271.644 354.36 258.767 334.515C254.906 328.6 251.252 321.794 251.901 321.794C252.048 321.794 254.435 324.179 257.205 327.073C264.218 334.42 269.199 340.749 276.949 352.166C279.07 355.314 281.192 358.399 281.634 358.972L282.459 360.085L283.697 357.382C285.288 353.788 287.646 351.117 293.805 345.805C301.82 338.872 302.851 337.314 306.299 326.724C309.423 317.087 311.78 310.441 313.549 306.179C317.144 297.433 321.328 289.991 325.1 285.666C328.018 282.295 330.257 278.956 334.029 272.404C340.188 261.718 342.634 258.506 349.294 252.464C352.476 249.602 354.686 246.771 355.983 243.941C356.779 242.191 356.985 241.333 357.073 239.202L357.191 236.594L355.806 233.954C351.298 225.463 345.846 220.279 338.715 217.608C335.237 216.336 329.078 215.7 325.012 216.208Z" fill="#577c4e"/>
</svg>
