<?xml version="1.0" encoding="utf-8"?>

<!DOCTYPE svg PUBLIC "-//W3C//DTD SVG 1.1//EN" "http://www.w3.org/Graphics/SVG/1.1/DTD/svg11.dtd">
<svg version="1.1" id="Layer_1" xmlns="http://www.w3.org/2000/svg" xmlns:xlink="http://www.w3.org/1999/xlink" x="0px" y="0px"
	 viewBox="0 0 1424.1674 3193.2002" enable-background="new 0 0 1424.1674 3193.2002" xml:space="preserve">
<g>
	<path d="M473.1594,3097.4126c-111.6515,0-223.3029,0.0005-334.9543-0.0007c-6.3442,0-6.5024-0.0447-4.9607-6.1809
		c1.2151-4.8364,2.4344-9.7544,4.42-14.3008c14.6281-33.4946,25.0955-68.4329,36.3398-103.1177
		c13.6574-42.1284,28.2737-83.9238,43.3282-125.5862c12.1005-33.4875,23.3539-67.3086,34.6657-101.0928
		c6.5965-19.7014,15.1795-38.7485,22.1296-58.3757c15.4491-43.6292,32.7743-86.6335,45.7365-131.0881
		c6.6547-22.8225,10.7549-46.3826,16.265-69.5486c3.8595-16.2266,5.8934-32.7742,9.1713-49.1047
		c4.9078-24.4512,12.5767-47.9607,22.1682-70.9329c10.6003-25.3882,14.219-51.439,10.4975-79.1143
		c-4.4627-33.1875-13.6178-65.0159-23.502-96.7595c-2.288-7.3484-7.0945-13.5508-10.4946-20.4094
		c-16.9203-34.1326-33.8055-68.2825-50.8164-102.3696c-5.4965-11.0142-11.6959-21.6311-16.8614-32.866
		c-19.638-42.7136-32.9246-87.1232-38.1202-133.911c-0.6592-5.9365-1.8746-11.8457-3.2847-17.6577
		c-3.5919-14.8044-4.8845-29.7849-5.0607-45.0018c-0.0717-6.1907-2.3195-12.3719-3.7083-18.528
		c-1.9389-8.5944-1.4092-17.2234-0.476-25.847c1.5149-13.9987,0.4676-27.6025-5.5938-40.5549
		c-5.2349-11.1863-6.9432-23.2301-8.4566-35.3219c-0.4044-3.2312,0.2951-6.309,0.8944-9.4039
		c2.4694-12.7544,4.6943-25.5677,7.6163-38.219c1.8996-8.2247,0.9707-16.2676-0.0997-24.3174
		c-1.0048-7.5564-0.3845-14.9574,0.7327-22.3712c0.5618-3.7283,0.3608-7.2231-1.1272-10.7386
		c-4.2943-10.1459-5.8226-20.8177-5.5163-31.7644c0.29-10.3635-0.0155-20.6064-3.4755-30.5681
		c-2.5078-7.2206-0.7218-14.4745,0.3773-21.73c2.7692-18.2798,5.4604-36.5729,7.9546-54.892
		c0.7945-5.8353,2.0022-11.5293,4.4246-16.8417c5.8046-12.7292,7.8029-26.0179,6.9081-39.903
		c-0.6521-10.1185,1.1828-20.0078,4.5956-29.4492c4.8304-13.3633,12.3697-25.0321,23.6869-33.9691
		c6.7948-5.366,13.2313-11.2783,20.4489-15.9963c14.3138-9.3569,29.5331-16.6843,46.9414-18.6218
		c7.5246-0.8374,8.3629-2.5077,5.8484-9.5629c-7.3758-20.6952-10.0974-42.1293-9.541-63.9082
		c0.497-19.4563,1.2342-39.001,7.8676-57.6711c9.449-26.5945,25.4247-47.8472,50.774-61.1802
		c16.3896-8.6204,33.0292-16.9321,51.6927-19.304c36.862-4.6847,67.1187,7.8011,90.8686,36.1829
		c6.5208,7.7924,12.8449,15.7705,18.8613,23.9558c3.5093,4.7744,7.5205,7.3097,13.511,6.2068
		c1.1327-0.2085,2.3505-0.24,3.4896-0.0771c4.4518,0.6356,5.8984-0.9908,6.0123-5.6693c0.7513-30.8777-3.2785-61.1267-10.6851-91.05
		c-9.5536-38.5972-24.1942-75.4515-37.9695-112.6116c-14.822-39.9838-29.8914-79.8793-44.2777-120.0195
		c-9.6418-26.9021-14.4235-55.0462-19.2873-83.1271c-8.3901-48.4406-14.4495-97.1813-19.8197-146.039
		c-8.3922-76.3517-27.9311-150.1729-51.3921-223.1107c-6.7283-20.9177-10.2529-42.7373-15.1534-64.1635
		c-6.7188-29.3761-14.9311-58.4421-19.999-88.1528c-3.2192-18.8723-3.78-38.1638-1.4763-57.2283
		c1.7301-14.3174,9.7889-25.9783,18.6702-37.0167c17.5533-21.8165,40.8316-31.6814,68.24-33.4632
		c48.1504-3.1302,92.6897,21.5279,113.7774,70.8858c7.6221,17.8402,13.36,36.2526,18.0392,55.0129
		c5.6851,22.793,11.804,45.4572,18.8295,67.8745c11.7267,37.4191,18.7993,75.9471,27.2144,114.1562
		c4.3689,19.8373,10.4523,39.202,16.011,58.7226c11.5982,40.7289,26.0854,80.4638,40.1301,120.3561
		c10.1202,28.7452,21.6522,57.0297,29.1518,86.6295c4.5793,18.0741,7.7823,36.4987,12.4247,54.5546
		c11.8201,45.972,21.2085,92.5067,32.651,138.5752c8.5286,34.3373,18.1906,68.2438,30.7397,101.2502
		c7.3815,19.4144,18.3124,36.8829,34.2872,50.8948c13.6871,12.0055,28.4074,14.8693,46.6154,12.0486
		c34.9845-5.4198,57.6042-25.6135,75.2828-54.4074c20.1301-32.787,32.5808-68.85,46.6608-104.2658
		c16.9236-42.5683,34.5123-84.8391,54.3298-126.1849c8.623-17.9906,15.7043-36.7462,22.9757-55.3537
		c17.6572-45.1851,38.1522-89.127,58.1844-133.2633c14.4901-31.9253,24.7759-65.3035,30.7946-99.52
		c9.7743-55.5674,27.0095-108.4931,49.79-159.83c6.9764-15.7216,15.4685-30.5782,26.1664-44.1797
		c15.0601-19.1477,34.8527-28.0206,58.8694-29.0701c39.47-1.7248,66.494,18.6432,87.6556,49.1342
		c12.7087,18.3116,16.6821,39.4955,16.9949,61.2714c0.3838,26.7216-2.8577,53.2447-7.3856,79.512
		c-8.012,46.4801-17.7706,92.5305-34.5278,136.8853c-7.3514,19.4585-11.8486,39.8624-16.2572,60.235
		c-2.8475,13.1596-6.939,26.0475-10.3741,39.0831c-6.9719,26.4575-11.926,53.3202-14.4441,80.5402
		c-3.0869,33.3681-11.8904,65.4843-20.314,97.6863c-8.1453,31.1381-19.469,61.2358-30.9275,91.2766
		c-6.8258,17.8951-14.0288,35.6901-19.8185,53.9249c-6.1429,19.348-10.8827,39.1451-16.1138,58.7783
		c-10.0757,37.8167-22.0444,75.1327-30.7081,113.3102c-3.5289,15.55-5.9863,31.4485-7.5128,47.3247
		c-2.7289,28.3795-6.7765,56.5354-11.8058,84.5708c-6.4768,36.105-10.1888,72.5532-13.2054,109.0653
		c-0.7494,9.0703,0.3916,18.297,0.6621,27.4517c0.8186,27.7037-1.2015,55.1539-6.0776,82.4821
		c-4.3849,24.5762-8.5739,49.2405-11.3274,74.0347c-1.6606,14.9537-0.9115,30.1813,0.4819,45.3538
		c2.8535,31.0699,10.787,61.3564,13.6487,92.3734c3.5938,38.9518,0.8667,77.5396-8.1533,115.6453
		c-1.1508,4.8612-2.1771,9.7516-3.2831,14.6235c-4.3772,19.2805-5.7621,38.9264-4.7435,58.5209
		c2.1217,40.8096,1.7227,81.6249,1.4492,122.4371c-0.1698,25.3656-6.9506,49.7408-13.5089,74.0343
		c-11.9143,44.1328-27.3386,87.03-45.413,129.0168c-14.2361,33.0706-26.8574,66.7954-36.1536,101.5928
		c-4.415,16.5266-8.8522,33.1553-11.0486,50.2224c-0.5103,3.9646-1.2859,7.8787-2.607,11.6809
		c-4.4122,12.6985-4.739,26.127-6.5711,39.2449c-6.5861,47.1545-19.9503,92.7515-31.1418,138.8486
		c-5.9293,24.4224-11.959,48.8359-20.1981,72.6001c-5.6461,16.2856-11.5138,32.4749-18.4338,48.3306
		c-9.9704,22.8447-19.2666,46.0779-27.4615,69.5681c-8.4313,24.1677-17.3834,48.1777-26.2613,72.1472
		c-7.2944,19.6941-14.0792,39.5212-20.2899,59.5229c-11.7852,37.9534-25.107,75.4028-35.3441,113.8833
		c-7.0146,26.3674-13.3833,52.8716-19.9571,79.3354c-0.5137,2.0679-1.1396,3.3362-3.5266,3.0557
		c-1.3149-0.1543-2.663-0.0247-3.9962-0.0247C695.7957,3097.4128,584.4775,3097.4126,473.1594,3097.4126z"/>
</g>
</svg>
