<svg width="419" height="376" viewBox="0 0 419 376" fill="none" xmlns="http://www.w3.org/2000/svg">
<g filter="url(#filter0_d_4_10)">
<path d="M190.023 0.185711C158.303 1.98061 134.604 8.44843 105.896 23.1171C98.7924 26.7688 86.2224 34.8767 77.9078 41.1898C60.8532 54.1255 44.0605 71.3008 32.3743 87.7953C24.2234 99.2455 17.2838 109.922 14.2722 115.647C10.9988 121.836 10.8023 122.579 10.7696 128.428C10.7696 134.091 11.1624 136.165 13.2574 142.354C16.138 150.833 16.6945 154.671 16.6945 166.492C16.6945 179.18 16.0726 186.855 14.043 199.914C12.1772 211.736 11.0315 216.007 5.89219 229.778C2.06227 240.052 1.30938 242.961 0.327344 251.286L0 254.226L2.61875 261.498C5.99039 270.751 9.03469 278.426 11.5225 283.934C22.554 308.382 34.5675 322.958 45.3371 324.969C46.2537 325.155 53.8808 325.403 62.359 325.557C78.8244 325.836 83.2435 326.145 87.9245 327.259C92.802 328.435 97.8103 331.282 99.8071 334.037C102.066 337.131 102.622 342.454 103.31 367.892L103.539 376.031L116.829 375.938C131.199 375.845 131.559 375.783 132.214 374.174C132.378 373.741 132.705 372.348 132.902 371.111C133.163 369.563 133.524 368.573 134.047 368.016C134.8 367.18 134.8 367.18 135.52 367.799C136.47 368.604 137.092 370.058 137.484 372.534C137.681 373.679 137.91 374.917 138.008 375.288L138.139 376H151.888H165.636V374.36C165.636 370.646 166.749 367.211 168.058 366.716C169.728 366.128 170.939 368.109 171.561 372.441C171.757 373.989 171.986 375.412 172.052 375.598C172.15 375.907 175.751 376 188.681 376H205.179L205.572 373.927C206.063 371.234 206.849 369.099 208.092 367.242L209.074 365.726L210.122 367.335C211.366 369.254 212.119 371.822 212.119 374.205V376L229.533 375.938L246.948 375.845L247.341 372.844C247.963 368.263 249.24 366.097 250.942 366.716C252.251 367.211 253.364 370.646 253.364 374.36V376H267.113H280.861L280.992 375.288C281.09 374.917 281.319 373.679 281.516 372.534C281.908 370.058 282.53 368.604 283.48 367.799C284.2 367.18 284.2 367.18 284.953 368.016C285.477 368.573 285.837 369.563 286.098 371.111C286.295 372.348 286.622 373.741 286.786 374.174C287.441 375.783 287.801 375.845 302.171 375.938L315.461 376.031L315.69 367.892C316.018 355.421 316.509 345.239 316.902 341.649C317.556 335.801 318.571 333.851 322.237 331.251C326.329 328.311 330.748 326.888 337.655 326.176C339.652 325.991 348.196 325.712 356.641 325.557C365.119 325.403 372.779 325.155 373.663 324.969C384.563 322.927 396.642 308.103 407.805 283.161C410.489 277.095 412.911 271.03 416.414 261.343L419 254.226L418.673 251.286C417.691 242.961 416.938 240.052 413.108 229.778C407.936 215.914 406.921 212.262 405.121 200.75C402.927 187.041 402.306 179.49 402.306 166.492C402.306 154.733 402.862 150.833 405.677 142.509C407.838 136.134 408.23 134.091 408.23 128.459C408.198 122.579 408.001 121.836 404.728 115.647C401.716 109.953 394.777 99.2455 386.691 87.8881C375.005 71.3936 358.114 54.0945 341.19 41.2517C332.549 34.6911 320.208 26.7688 312.613 22.8695C287.146 9.84102 264.592 3.21847 237.324 0.742748C233.2 0.37139 227.177 0.216657 211.955 0.154764C200.989 0.123818 191.103 0.123818 190.023 0.185711ZM89.103 158.137C95.1916 158.972 101.182 162.222 115.88 172.651C138.172 188.495 153.786 201.771 166.291 215.542C172.772 222.691 177.224 228.757 181.905 236.772C184.917 241.909 185.604 243.549 185.604 245.746C185.604 247.696 185.244 248.346 183.934 248.779C182.494 249.243 175.947 249.212 167.764 248.655C151.102 247.572 128.155 247.355 119.644 248.222C118.04 248.377 114.407 248.965 111.624 249.491C107.009 250.388 105.994 250.481 100.167 250.481C92.9002 250.512 91.2962 250.233 86.9098 248.222C81.6068 245.746 77.8751 241.414 73.947 233.12C66.3853 217.214 54.4045 189.207 52.5387 183.08C51.5894 180.016 52.4077 176.859 54.7974 174.105C56.9906 171.567 63.6356 167.637 75.7801 161.665C83.9637 157.672 84.5202 157.518 89.103 158.137ZM341.747 160.953C353.957 166.833 361.944 171.506 364.203 174.105C366.592 176.859 367.411 180.016 366.461 183.08C364.596 189.207 352.615 217.214 345.053 233.12C341.125 241.414 337.393 245.746 332.09 248.222C327.704 250.233 326.1 250.512 318.833 250.481C313.039 250.481 311.991 250.388 307.376 249.491C304.593 248.965 301.058 248.377 299.52 248.222C291.565 247.355 268.029 247.572 251.236 248.655C242.267 249.243 236.342 249.274 234.869 248.686C233.527 248.129 233.232 247.324 233.494 244.756C233.691 242.713 234.476 241.042 238.666 234.11C249.829 215.542 270.681 195.706 303.284 172.527C320.142 160.581 326.264 157.611 333.563 157.982C335.495 158.075 336.215 158.322 341.747 160.953ZM213.559 269.792C218.567 272.329 226.26 282.016 237.881 300.305C244.657 310.981 246.424 314.633 245.933 316.954C245.672 318.192 243.151 320.204 241.154 320.761C237.324 321.844 216.8 321.627 214.476 320.482C213.363 319.925 212.348 318.532 211.791 316.738C211.562 315.995 211.3 311.538 211.137 305.69C210.94 299.748 210.711 295.632 210.482 295.23C210.024 294.425 208.976 294.425 208.518 295.261C208.289 295.663 208.027 299.624 207.863 305.69C207.7 311.569 207.438 315.995 207.209 316.738C206.652 318.532 205.637 319.925 204.524 320.482C202.2 321.627 181.676 321.844 177.846 320.761C175.849 320.204 173.329 318.192 173.067 316.985C172.576 314.602 174.605 310.424 181.676 299.407C194.933 278.642 201.971 270.442 207.929 268.77C209.598 268.306 211.235 268.616 213.559 269.792Z" fill="black"/>
</g>
<defs>
<filter id="filter0_d_4_10" x="-4" y="0.134399" width="427" height="383.897" filterUnits="userSpaceOnUse" color-interpolation-filters="sRGB">
<feFlood flood-opacity="0" result="BackgroundImageFix"/>
<feColorMatrix in="SourceAlpha" type="matrix" values="0 0 0 0 0 0 0 0 0 0 0 0 0 0 0 0 0 0 127 0" result="hardAlpha"/>
<feOffset dy="4"/>
<feGaussianBlur stdDeviation="2"/>
<feComposite in2="hardAlpha" operator="out"/>
<feColorMatrix type="matrix" values="0 0 0 0 0 0 0 0 0 0 0 0 0 0 0 0 0 0 0.25 0"/>
<feBlend mode="normal" in2="BackgroundImageFix" result="effect1_dropShadow_4_10"/>
<feBlend mode="normal" in="SourceGraphic" in2="effect1_dropShadow_4_10" result="shape"/>
</filter>
</defs>
</svg>
