<svg width="286" height="330" viewBox="0 0 286 330" fill="none" xmlns="http://www.w3.org/2000/svg">
<path d="M135.376 0.180474C105.029 1.31485 76.573 6.93516 55.9814 15.8555C47.6067 19.4906 41.3632 23.1773 34.3693 28.643C19.3909 40.3219 8.46472 55.9195 3.15173 73.0898C0.930482 80.3344 0.150043 85.8773 0.18006 94.1016C0.240093 113.309 6.69372 133.444 17.86 149.273C20.8017 153.45 25.4543 158.735 28.9062 161.829L30.4071 163.144L29.1163 168.764C27.5554 175.751 27.1952 178.793 27.4354 183.691C27.8256 191.658 29.4465 198.052 32.5983 203.878C35.8401 209.885 40.4027 213.752 48.027 216.949C49.5278 217.568 50.6084 218.135 50.4583 218.213C50.2782 218.316 50.9986 220.12 52.1093 222.441C58.4728 235.563 61.1443 242.885 62.285 250.181C62.7652 253.275 62.7652 253.688 62.315 255.982C61.4145 260.7 61.2344 262.505 61.2344 267.609C61.2344 286.533 67.1477 299.655 81.3457 312.314C88.0695 318.295 95.0634 322.291 102.808 324.586C116.375 328.582 126.881 330 143.03 330C159.84 330 170.226 328.453 183.703 323.993C191.388 321.441 197.091 318.192 203.785 312.598C211.199 306.384 216.872 299.32 220.144 292.179C224.526 282.666 225.997 267.764 223.716 256.111C223.235 253.636 223.235 253.275 223.716 250.181C224.826 242.834 228.098 234.094 234.822 220.481C235.692 218.754 235.813 218.316 235.452 218.187C234.912 218.006 234.912 217.594 235.422 217.594C236.113 217.594 242.536 214.732 244.848 213.391C251.601 209.524 256.194 202.177 258.475 191.658C258.926 189.621 259.136 187.275 259.256 183.047C259.436 176.395 259.316 175.235 257.365 166.805L256.044 161.004L258.475 158.813C277.476 141.668 286.841 120.115 285.941 95.8031C284.98 69.7898 274.144 48.1078 253.462 30.6281C245.598 24.0023 239.385 19.8773 232.631 16.8094C217.682 10.0031 189.196 3.1711 166.293 0.902349C159.119 0.180474 144.381 -0.154683 135.376 0.180474ZM155.037 6.96094C167.074 7.37344 179.081 8.99766 194.209 12.2719C208.617 15.3656 219.844 18.7172 228.398 22.507C232.18 24.157 233.411 24.8273 237.133 27.3023C260.636 42.7711 274.114 63.0352 277.536 88.043C278.226 93.0445 278.226 104.311 277.566 109.029C275.465 123.466 269.311 136.615 259.556 147.469C257.485 149.763 254.483 152.677 254.333 152.522C254.033 152.264 253.012 144.736 252.742 140.688C252.532 137.749 252.532 135.094 252.742 132.438C253.252 125.787 253.282 125.684 256.794 116.66C258.355 112.69 259.826 108.539 260.096 107.43C261.207 102.609 261.807 91.3172 261.147 87.7336C260.456 84.15 258.926 81.2367 256.224 78.4781L255.053 77.2922L252.262 79.6898L249.44 82.0875L250.161 82.7578C251.361 83.8664 252.142 85.0008 252.832 86.5477C253.432 87.9141 253.462 88.507 253.462 93.8438C253.432 103.202 252.772 106.296 248.93 115.629C246.018 122.641 245.328 125.606 244.788 133.934C244.668 135.48 244.728 138.832 244.908 141.333C245.418 148.423 246.348 153.708 249.86 168.867C251.511 176.009 251.631 177.169 251.451 182.738C251.241 190.291 249.86 195.757 246.889 201.016C243.257 207.41 239.535 209.447 222.005 214.655C214.17 217.001 208.467 219.605 201.863 223.884C194.629 228.551 190.457 234.893 189.376 242.782C189.196 244.097 189.106 245.592 189.166 246.082L189.286 247.01L185.985 247.913C181.782 249.047 176.799 249.923 170.646 250.568C154.467 252.295 125.17 252.244 111.963 250.439C107.28 249.795 103.018 248.97 99.4158 247.964L97.5548 247.448V245.102C97.5548 239.585 95.3336 234.145 91.0712 229.324C88.6398 226.566 87.4691 225.56 84.1673 223.446C77.0833 218.909 74.0516 217.62 64.5362 215.067C52.7696 211.896 48.147 209.963 43.9747 206.379C41.9936 204.703 41.3032 203.878 40.1325 201.867C37.431 197.149 35.9902 192.096 35.3598 185.393C34.8796 179.927 35.2698 176.679 37.7912 165.696C41.1231 151.181 42.0236 145.123 42.0236 137.027C42.0236 128.365 41.1231 123.827 38.0013 116.222C34.2492 107.07 33.919 105.729 33.3187 97.2469C32.8384 90.0539 33.5888 86.3672 36.0502 83.9438C37.491 82.5258 37.5211 82.5773 34.2792 79.8445L31.9079 77.8336L30.377 79.2773C28.546 81.0047 26.9551 83.6602 26.0846 86.4961C24.8239 90.5695 25.4243 103.099 27.1352 109.184C27.5554 110.602 28.8462 114.134 30.0168 117.047C31.1875 119.96 32.4182 123.131 32.7484 124.137C34.0391 128.055 34.6094 137.749 33.919 143.988C33.4688 147.984 32.3581 154.688 32.118 154.688C31.8779 154.688 29.0563 151.568 26.9851 149.016C19.3608 139.605 13.0573 125.941 10.0856 112.406C9.03504 107.637 8.49473 103.847 8.04448 98.2781C7.02391 85.0523 10.4758 71.182 18.0101 58.2398C24.8239 46.5867 34.6694 36.3773 46.406 28.7461C69.0688 14.0508 111.903 5.43985 155.037 6.96094ZM223.956 225.586C217.292 239.895 214.591 250.491 215.941 257.065C217.742 265.882 217.292 275.627 214.741 284.47C213.42 288.982 211.949 291.973 208.887 296.536C204.865 302.491 196.851 309.762 190.007 313.68C183.103 317.651 170.586 321.312 159.84 322.523C150.054 323.606 133.725 323.477 123.85 322.24C116.315 321.312 105.749 318.682 100.406 316.439C91.4914 312.649 81.4057 303.703 75.7926 294.628C72.1605 288.673 70.2995 282.872 69.3089 274.493C68.7986 269.955 69.0988 261.577 69.9393 257.555C70.4496 255.054 70.5696 253.842 70.4195 252.115C69.7892 244.999 67.0877 236.363 62.1049 225.663C60.9642 223.163 60.0637 221.1 60.0937 221.048C60.2138 220.971 67.3278 222.776 67.5379 222.956C67.628 223.034 67.5079 223.137 67.3278 223.188C67.0276 223.291 67.0577 223.523 67.4179 224.245C72.8209 235.022 77.4735 247.32 79.6347 256.523C80.5052 260.159 81.7359 266.913 82.2762 270.961L82.6364 273.668L85.3679 276.066C96.0239 285.45 108.841 290.194 128.412 291.973C135.796 292.643 146.782 292.952 152.366 292.643C170.496 291.612 186.975 286.713 196.761 279.495C198.892 277.896 199.822 277.02 201.563 274.957C202.854 273.41 202.854 273.384 203.514 269.285C205.826 254.048 209.278 242.782 215.971 228.422C218.283 223.42 218.463 223.111 219.483 222.673C220.504 222.234 226.117 220.455 226.237 220.533C226.267 220.559 225.217 222.827 223.956 225.586ZM75.0722 226.179C81.4057 229.814 83.3868 231.387 86.0884 234.945C87.7093 237.11 88.7298 239.198 89.3002 241.596C89.8705 243.916 89.8705 245.695 89.3002 246.391C88.8499 246.933 88.9099 246.984 91.2813 247.99C92.632 248.583 93.4425 249.047 93.0823 249.047C92.3319 249.047 92.4219 247.423 92.1818 264.129L92.0017 276.994L89.8104 275.215C86.5086 272.559 86.5386 272.585 85.8182 268.073C84.5275 259.849 83.2067 253.997 81.1656 247.552C79.6647 242.834 76.1828 233.913 73.8415 228.886C72.7609 226.514 71.9504 224.555 72.0405 224.555C72.1605 224.555 73.5413 225.277 75.0722 226.179ZM211.559 228.731C209.608 232.882 205.646 243.091 204.295 247.5C202.314 253.945 201.113 259.334 199.792 267.687L199.072 272.25L197.871 273.616C197.181 274.338 196.04 275.473 195.29 276.117L193.909 277.252V270.703C193.909 267.094 193.819 260.571 193.699 256.214L193.519 248.325L195.44 247.5C197.811 246.469 197.691 246.598 197.241 245.876C196.941 245.412 196.941 244.793 197.211 243.117C198.171 237.059 201.353 232.547 207.266 228.834C210.448 226.823 212.549 225.638 212.85 225.612C212.97 225.586 212.399 227.004 211.559 228.731ZM190.607 255.827V262.092L188.266 263.304C186.975 263.948 185.054 264.851 184.003 265.263L182.052 266.063L181.902 258.921L181.752 251.754L185.054 250.929C186.885 250.491 188.686 250.001 189.106 249.846C190.667 249.305 190.607 249.124 190.607 255.827ZM97.885 250.388C98.9356 250.697 101.217 251.264 102.958 251.651C105.179 252.141 105.809 252.373 105.059 252.373L104.008 252.398V254.384C104.008 255.492 103.978 258.56 103.918 261.216L103.858 266.037L102.147 265.392C101.187 265.031 99.2958 264.18 97.945 263.536L95.4536 262.324V256.059C95.4536 252.63 95.5737 249.82 95.6938 249.82C95.8138 249.82 96.8044 250.078 97.885 250.388ZM111.092 253.017C112.803 253.223 114.875 253.481 115.685 253.559L117.156 253.739L116.946 255.673C116.856 256.755 116.766 260.339 116.766 263.639V269.646L114.004 269.002C112.473 268.641 110.312 268.125 109.201 267.816L107.16 267.248V259.798C107.16 253.61 107.22 252.373 107.58 252.476C107.791 252.553 109.381 252.785 111.092 253.017ZM178.6 259.823V267.274L175.989 267.945C173.317 268.641 169.745 269.414 169.115 269.414C168.905 269.414 168.755 269.259 168.785 269.079C168.785 268.924 168.755 265.392 168.755 261.241C168.695 254.332 168.665 253.713 168.185 253.61C167.884 253.533 168.335 253.455 169.145 253.43C169.986 253.404 172.147 253.172 173.948 252.914C175.779 252.682 177.55 252.45 177.94 252.424L178.6 252.398V259.823ZM165.633 261.86L165.693 269.878L165.033 270.007C164.012 270.239 157.859 270.78 157.739 270.652C157.679 270.6 157.529 266.991 157.408 262.634L157.198 254.719H155.728H154.287V262.814V270.884L152.276 271.064C151.135 271.141 149.034 271.219 147.533 271.245L144.831 271.296L144.771 263.072L144.681 254.848L143.18 254.77L141.68 254.693V263.072V271.477H138.108C136.157 271.477 133.935 271.399 133.155 271.322L131.774 271.141V262.84V254.538L145.972 254.358C153.746 254.255 161.221 254.074 162.541 253.971C163.862 253.868 165.093 253.791 165.243 253.816C165.423 253.842 165.573 256.781 165.633 261.86ZM127.722 254.435L128.622 254.59L128.472 262.866L128.322 271.116L124.33 270.703C122.139 270.445 120.248 270.162 120.127 270.033C120.007 269.904 119.947 266.243 120.007 261.886L120.097 253.971L123.459 254.126C125.32 254.203 127.241 254.332 127.722 254.435ZM190.877 274.622C190.907 277.664 190.997 278.695 191.267 278.695C191.868 278.695 188.776 280.397 185.384 281.918C183.703 282.691 182.202 283.336 182.112 283.336C181.992 283.336 181.902 280.113 181.932 276.169V269.027L186.195 267.223L190.457 265.418L190.637 267.996C190.757 269.414 190.847 272.405 190.877 274.622ZM99.8661 267.352L103.858 269.027V276.195V283.336L101.997 282.537C100.947 282.098 98.9956 281.145 97.6449 280.423L95.1535 279.082V272.302C95.1535 266.991 95.2435 265.521 95.5437 265.598C95.7238 265.65 97.7049 266.449 99.8661 267.352ZM112.083 271.322C114.214 271.838 116.165 272.25 116.405 272.25C116.736 272.25 116.796 273.384 116.706 279.443C116.646 283.413 116.525 286.713 116.435 286.791C116.225 286.971 109.682 285.398 107.881 284.754L106.77 284.367L106.95 281.841C107.07 280.474 107.16 277.277 107.16 274.725C107.16 270.471 107.19 270.136 107.701 270.265C107.971 270.342 109.952 270.806 112.083 271.322ZM178.901 277.355V284.522L175.389 285.502C170.166 286.945 170.166 286.945 169.535 286.945C169.025 286.945 168.995 286.61 169.055 279.572L169.145 272.173L172.297 271.58C174.008 271.245 175.989 270.806 176.649 270.6C179.081 269.852 178.901 269.311 178.901 277.355ZM165.693 275.163C165.693 276.504 165.783 279.855 165.903 282.614L166.083 287.667L164.342 287.977C163.382 288.157 161.461 288.441 160.08 288.595L157.589 288.93V281.222C157.589 276.994 157.679 273.539 157.829 273.513C157.949 273.513 159.39 273.333 161.04 273.152C162.691 272.972 164.402 272.817 164.883 272.791L165.693 272.766V275.163ZM124.12 273.41C125.951 273.616 127.662 273.797 127.962 273.797C128.442 273.797 128.472 274.313 128.472 281.145V288.492L127.362 288.466C126.731 288.466 124.81 288.26 123.069 288.028L119.917 287.59L119.827 280.294C119.767 273.488 119.797 273.023 120.278 273.023C120.578 273.023 122.319 273.204 124.12 273.41ZM154.287 289.059C154.197 289.163 152.035 289.266 149.484 289.317L144.831 289.395L144.771 281.712L144.681 274.055L146.272 274.029C147.113 274.003 149.244 273.926 150.985 273.823L154.137 273.668L154.287 281.273C154.377 285.45 154.377 288.956 154.287 289.059ZM141.68 281.686V289.343L136.817 289.137C134.115 289.034 131.804 288.905 131.654 288.827C131.534 288.75 131.444 285.398 131.504 281.377L131.624 274.055H136.667H141.68V281.686Z" fill="black"/>
<path d="M104.609 131.768C103.798 131.897 99.1157 132.413 94.2529 132.902C85.398 133.83 75.5224 135.016 70.9899 135.713C62.1649 137.053 56.0415 141.436 53.2799 148.371C52.5895 150.098 52.3494 154.327 52.8296 156.183C53.2499 157.859 54.9608 161.674 57.6924 167.191C58.773 169.305 60.0037 171.935 60.4839 172.992C61.8647 176.189 65.5568 180.134 69.9092 183.098C72.6708 184.98 75.2222 186.115 79.2445 187.198C82.0361 187.945 82.7865 188.048 85.8482 188.048C90.2007 188.074 92.3319 187.533 96.0539 185.47C98.4253 184.181 100.106 182.763 103.708 179.051C113.043 169.383 121.238 158.065 122.589 152.96C123.91 147.933 122.649 141.436 119.617 137.517C116.045 132.877 110.762 130.866 104.609 131.768Z" fill="black"/>
<path d="M175.929 131.742C170.376 132.748 165.663 137.131 163.862 143.009C163.022 145.664 162.962 150.666 163.712 153.27C164.883 157.369 171.907 167.501 179.021 175.287C187.545 184.671 191.297 187.198 197.811 187.997C202.344 188.564 208.857 187.223 213.75 184.697C218.643 182.17 224.016 176.911 225.847 172.863C226.417 171.574 227.708 168.867 228.729 166.805C233.291 157.601 234.072 155.332 233.741 151.981C233.501 149.738 232.361 146.541 231.13 144.684C229.779 142.699 226.567 139.889 224.106 138.574C219.303 135.996 216.872 135.584 188.206 132.49C179.561 131.536 177.7 131.433 175.929 131.742Z" fill="black"/>
<path d="M136.727 179.773C132.614 182.609 129.913 185.058 127.181 188.435C124.75 191.4 121.478 196.891 120.368 199.805C119.527 202.022 118.687 206.379 118.266 210.581C117.396 219.656 120.037 228.035 124.15 229.195C125.561 229.608 127.722 229.015 130.123 227.52C131.924 226.411 136.637 222.389 138.768 220.146L139.879 218.96L139.819 198.335L139.728 177.71L136.727 179.773Z" fill="black"/>
<path d="M146.122 198.567L146.242 219.27L147.623 220.687C150.174 223.317 155.337 227.52 157.078 228.396C158.309 229.015 159.33 229.324 160.44 229.402C161.971 229.505 162.091 229.479 163.382 228.448C167.494 225.173 168.905 216.253 167.044 205.348C166.353 201.352 165.483 199.057 162.992 194.571C161.431 191.709 157.619 186.811 155.217 184.542C153.686 183.124 146.572 177.891 146.152 177.891C146.092 177.891 146.092 187.198 146.122 198.567Z" fill="black"/>
</svg>
